Coordinates
version=1
nRows=11
nColumns=40
inDegrees=yes

Units are S.I. units (second, meters, Newtons, ...)
If the header above contains a line with 'inDegrees', this indicates whether rotational values are in degrees (yes) or radians (no).

endheader
time	pelvis_tilt	pelvis_list	pelvis_rotation	pelvis_tx	pelvis_ty	pelvis_tz	hip_flexion_r	hip_adduction_r	hip_rotation_r	knee_angle_r	knee_angle_r_beta	ankle_angle_r	subtalar_angle_r	mtp_angle_r	hip_flexion_l	hip_adduction_l	hip_rotation_l	knee_angle_l	knee_angle_l_beta	ankle_angle_l	subtalar_angle_l	mtp_angle_l	lumbar_extension	lumbar_bending	lumbar_rotation	arm_flex_r	arm_add_r	arm_rot_r	elbow_flex_r	pro_sup_r	wrist_flex_r	wrist_dev_r	arm_flex_l	arm_add_l	arm_rot_l	elbow_flex_l	pro_sup_l	wrist_flex_l	wrist_dev_l
      2.00000000	      6.20172525	     -5.96506959	     -3.22291395	     -0.29329101	      1.06517363	     -1.04340031	     30.21122769	      1.70215336	     -7.72189336	     22.23726306	      0.38811346	    -15.71878408	      0.00000000	      0.00000000	      3.37681862	     -2.40497359	     -8.07382692	     18.03511241	      0.31477209	     -4.94604150	      0.00000000	      0.00000000	    -11.61629790	      2.66452614	      7.75706621	     68.63877856	    -28.25455277	     34.13565076	     49.32115016	     82.03221101	      0.00000000	      0.00000000	     70.63792427	    -32.54036216	     43.38784790	     45.70916138	     82.43853717	      0.00000000	      0.00000000
      2.00500000	      6.13715022	     -5.97258912	     -3.22504989	     -0.29346111	      1.06479901	     -1.04344431	     30.29111861	      1.70683981	     -7.78962667	     22.25724144	      0.38846215	    -15.66711424	      0.00000000	      0.00000000	      3.60648378	     -2.44870857	     -8.13067281	     18.36477354	      0.32052576	     -4.77711535	      0.00000000	      0.00000000	    -11.60215045	      2.66416896	      7.81097291	     68.67846039	    -28.37316833	     34.19274583	     49.38230720	     81.80704545	      0.00000000	      0.00000000	     70.80624004	    -32.47370386	     43.66390637	     45.59749361	     82.55572904	      0.00000000	      0.00000000
      2.01000000	      6.10927588	     -6.00684385	     -3.21967081	     -0.29388052	      1.06446401	     -1.04343611	     30.34327095	      1.74095267	     -7.82013242	     22.27362452	      0.38874808	    -15.70079841	      0.00000000	      0.00000000	      3.80011171	     -2.50868159	     -8.09046667	     18.66205630	      0.32571433	     -4.63791928	      0.00000000	      0.00000000	    -11.65976002	      2.68696838	      7.84751894	     68.82262639	    -28.44145171	     34.32448416	     49.34654448	     81.55821354	      0.00000000	      0.00000000	     70.97671430	    -32.39251069	     43.81139057	     45.46371707	     82.62190152	      0.00000000	      0.00000000
      2.01500000	      6.08152422	     -5.99987199	     -3.24454726	     -0.29433740	      1.06419392	     -1.04342701	     30.40735660	      1.76203919	     -7.73747741	     22.28658350	      0.38897426	    -15.73375296	      0.00000000	      0.00000000	      3.98397572	     -2.52884249	     -8.08024669	     18.90293555	      0.32991846	     -4.63979351	      0.00000000	      0.00000000	    -11.73729865	      2.69006399	      7.84255502	     69.01151463	    -28.40646581	     34.44266543	     49.25412307	     81.41348705	      0.00000000	      0.00000000	     70.99632936	    -32.44131174	     43.69351118	     45.51248620	     82.72358199	      0.00000000	      0.00000000
      2.02000000	      6.02277514	     -6.02487825	     -3.22806959	     -0.29471200	      1.06381133	     -1.04345130	     30.48333360	      1.78694235	     -7.79792978	     22.28480462	      0.38894321	    -15.66889400	      0.00000000	      0.00000000	      4.22473143	     -2.58200282	     -8.07093684	     19.22196675	      0.33548661	     -4.49518561	      0.00000000	      0.00000000	    -11.75864851	      2.71077202	      7.84483343	     69.13851786	    -28.45480378	     34.51912734	     49.26652699	     81.74644915	      0.00000000	      0.00000000	     71.09704444	    -32.40943520	     43.72554876	     45.50396345	     82.62187451	      0.00000000	      0.00000000
      2.02500000	      5.94801516	     -6.05476073	     -3.26935033	     -0.29502753	      1.06343066	     -1.04347426	     30.57357123	      1.84359949	     -7.71612674	     22.30063428	      0.38921949	    -15.65717136	      0.00000000	      0.00000000	      4.45266598	     -2.63280430	     -8.04014738	     19.49597068	      0.34026888	     -4.36888082	      0.00000000	      0.00000000	    -11.76416719	      2.76130955	      7.84697018	     69.34794947	    -28.40807457	     34.73666127	     49.12688470	     81.75022779	      0.00000000	      0.00000000	     71.10952760	    -32.47442021	     43.69824459	     45.55452908	     82.66453241	      0.00000000	      0.00000000
      2.03000000	      5.90246147	     -6.05205639	     -3.32574859	     -0.29537051	      1.06302988	     -1.04343031	     30.64729701	      1.87157413	     -7.72844989	     22.28718646	      0.38898478	    -15.65784567	      0.00000000	      0.00000000	      4.64411216	     -2.65175248	     -8.05334268	     19.76625829	      0.34498629	     -4.21156721	      0.00000000	      0.00000000	    -11.80117400	      2.75976626	      7.87343355	     69.50836423	    -28.39375360	     34.84866435	     49.06946948	     81.85349901	      0.00000000	      0.00000000	     71.18616657	    -32.50301122	     43.74032611	     45.52884883	     82.63866575	      0.00000000	      0.00000000
      2.03500000	      5.87975924	     -6.08552298	     -3.27356725	     -0.29579443	      1.06269078	     -1.04359132	     30.67953138	      1.87845333	     -7.79941092	     22.27244362	      0.38872747	    -15.67678470	      0.00000000	      0.00000000	      4.86097758	     -2.70430355	     -7.98210098	     20.09430349	      0.35071176	     -4.10968244	      0.00000000	      0.00000000	    -11.87085821	      2.79342364	      7.91379308	     69.58535140	    -28.54716674	     34.90794605	     49.14119220	     81.60731067	      0.00000000	      0.00000000	     71.38111503	    -32.39261261	     43.95227433	     45.43073200	     82.67642518	      0.00000000	      0.00000000
      2.04000000	      5.80632164	     -6.11049276	     -3.27315893	     -0.29638757	      1.06220067	     -1.04361526	     30.80154814	      1.90922613	     -7.77570030	     22.31642605	      0.38949511	    -15.69202089	      0.00000000	      0.00000000	      5.15898188	     -2.75790296	     -7.89143925	     20.47308569	      0.35732275	     -3.94871427	      0.00000000	      0.00000000	    -11.90628397	      2.82019578	      7.88574248	     69.77952100	    -28.51862643	     34.97689795	     49.05512458	     81.84272637	      0.00000000	      0.00000000	     71.52781031	    -32.39601356	     44.05618257	     45.35255505	     82.54543987	      0.00000000	      0.00000000
      2.04500000	      5.75312074	     -6.12238178	     -3.29713252	     -0.29680302	      1.06170881	     -1.04362349	     30.91314325	      1.93972917	     -7.82361353	     22.36622649	      0.39036429	    -15.59461417	      0.00000000	      0.00000000	      5.39462884	     -2.79589778	     -7.91510998	     20.80120776	      0.36304956	     -3.79097759	      0.00000000	      0.00000000	    -11.94537613	      2.83329310	      7.90093113	     70.07888718	    -28.59430930	     35.55038422	     48.98292490	     81.05395957	      0.00000000	      0.00000000	     71.74599579	    -32.42776822	     44.49111516	     45.27279789	     82.06439146	      0.00000000	      0.00000000
      2.05000000	      5.72946083	     -6.15435399	     -3.26124611	     -0.29725245	      1.06138106	     -1.04372407	     30.93099056	      1.96890984	     -7.81297624	     22.32156580	      0.38958482	    -15.68609973	      0.00000000	      0.00000000	      5.59092703	     -2.84517159	     -7.81886334	     21.08983840	      0.36808712	     -3.69601846	      0.00000000	      0.00000000	    -12.01607197	      2.87418385	      7.94190301	     70.09558732	    -28.61404649	     35.23691673	     48.97118654	     81.60511238	      0.00000000	      0.00000000	     71.71675218	    -32.29327318	     44.05236958	     45.27027560	     82.74047626	      0.00000000	      0.00000000
